<?xml version="1.0" standalone="no"?>
<!DOCTYPE svg PUBLIC "-//W3C//DTD SVG 20010904//EN"
 "http://www.w3.org/TR/2001/REC-SVG-20010904/DTD/svg10.dtd">
<svg version="1.0" xmlns="http://www.w3.org/2000/svg"
 width="256.000000pt" height="256.000000pt" viewBox="0 0 256.000000 256.000000"
 preserveAspectRatio="xMidYMid meet">
<metadata>
Created by potrace 1.14, written by Peter Selinger 2001-2017
</metadata>
<g transform="translate(0.000000,256.000000) scale(0.100000,-0.100000)"
fill="#000000" stroke="none">
<path d="M0 1280 c0 -784 4 -1280 9 -1280 5 0 31 41 58 92 48 92 95 150 129
163 11 3 37 30 60 58 38 50 102 102 112 93 2 -3 -14 -32 -36 -64 -22 -32 -49
-76 -60 -98 -21 -43 -72 -202 -72 -228 0 -15 60 -16 655 -16 l655 0 25 50 c14
28 36 55 48 60 12 5 47 29 77 54 30 25 57 42 61 38 4 -4 9 -23 13 -44 7 -40 6
-41 -72 -103 -28 -22 -51 -43 -52 -47 0 -5 17 -8 38 -8 26 0 45 8 65 26 29 27
47 25 47 -6 0 -18 8 -20 114 -19 l114 0 -41 61 -40 60 12 81 c7 45 14 94 16
110 2 15 6 31 9 36 3 4 8 37 11 72 20 215 112 463 229 620 50 66 188 199 207
199 4 0 -22 -28 -58 -62 -222 -214 -332 -514 -369 -1008 l-6 -85 33 -42 c33
-40 69 -56 69 -30 0 9 2 9 9 -1 5 -8 21 -12 40 -10 l32 3 -28 31 c-65 72 -87
117 -78 159 2 11 6 57 10 103 4 68 3 82 -9 82 -8 0 -17 4 -20 9 -4 5 3 7 13 4
31 -8 40 60 16 119 -4 11 -3 18 3 18 6 0 13 -8 16 -17 3 -10 4 -3 2 15 -1 18
1 35 6 38 12 7 10 84 -2 84 -5 0 -10 5 -10 10 0 6 7 10 16 8 12 -2 20 11 31
47 9 28 28 76 43 108 15 31 24 60 19 63 -14 8 -10 24 5 18 8 -3 30 22 62 73
26 43 52 80 56 81 4 2 8 10 8 18 0 9 5 12 10 9 6 -3 10 -1 10 6 0 18 152 162
196 184 l39 21 3 632 2 632 -382 -1 c-283 0 -377 -3 -360 -11 12 -6 22 -15 22
-20 0 -5 4 -7 9 -3 6 3 14 -3 20 -13 5 -10 27 -24 49 -31 37 -13 39 -15 41
-58 2 -54 7 -64 26 -56 8 3 15 0 15 -6 0 -7 9 -9 25 -5 15 4 32 1 40 -6 9 -7
29 -13 46 -12 17 0 32 -5 35 -13 3 -8 19 -17 35 -20 37 -8 46 -23 25 -43 -10
-11 -16 -12 -16 -4 0 7 -11 12 -24 12 -13 0 -27 6 -30 13 -3 9 -9 7 -19 -5 -8
-10 -19 -18 -26 -18 -6 0 -11 -5 -11 -10 0 -6 -8 -5 -20 2 -11 7 -20 18 -20
25 0 26 -101 16 -175 -17 -11 -5 -40 -15 -65 -22 -29 -8 -38 -13 -25 -15 11
-2 62 10 114 27 52 16 103 30 113 30 22 0 24 -16 2 -24 -8 -3 -12 -10 -9 -16
4 -6 -7 -13 -25 -16 -31 -7 -31 -7 -11 -25 11 -11 25 -19 31 -19 6 0 9 -4 6
-9 -7 -10 16 -21 44 -21 10 0 37 -17 59 -37 22 -21 56 -51 76 -66 19 -16 33
-32 30 -37 -3 -5 4 -12 15 -15 31 -10 18 -31 -16 -26 -16 1 -31 6 -34 10 -3 4
-20 16 -37 26 -18 11 -33 23 -33 27 0 4 -5 8 -11 8 -7 0 -20 9 -30 21 -9 11
-20 20 -23 20 -27 -3 -36 2 -36 22 0 15 -3 18 -8 9 -10 -15 -42 -5 -42 13 0 8
-17 28 -37 45 -22 17 -29 28 -18 24 11 -4 17 -3 12 2 -7 7 -117 15 -117 8 0
-2 10 -14 23 -27 34 -37 87 -100 87 -104 0 -2 -14 4 -31 13 -17 8 -29 11 -25
6 3 -5 -6 -15 -20 -22 -13 -8 -36 -28 -49 -46 -25 -33 -25 -34 -7 -51 26 -25
40 -26 52 -3 15 28 44 27 37 -1 -4 -17 -3 -19 6 -10 19 19 25 13 30 -36 3 -27
9 -63 12 -81 6 -28 5 -31 -10 -25 -15 5 -17 2 -11 -22 4 -15 14 -34 22 -42 8
-9 13 -22 10 -30 -3 -8 -6 -17 -6 -19 0 -2 -11 -4 -24 -4 -20 0 -25 7 -31 43
-4 23 -7 52 -6 64 1 13 -5 33 -15 45 -14 20 -15 20 -9 3 4 -11 10 -29 13 -40
5 -18 4 -19 -14 -5 -10 8 -23 20 -27 25 -5 6 -5 -4 -2 -22 11 -54 13 -190 4
-204 -6 -10 -9 -3 -10 21 0 19 -3 44 -6 55 -2 11 -6 31 -6 45 -1 14 -4 27 -7
30 -9 9 -27 89 -21 95 3 4 11 -9 17 -27 l12 -33 1 32 c1 26 -32 103 -44 103
-2 0 0 -13 5 -30 5 -18 5 -30 -1 -30 -5 0 -9 8 -9 18 0 10 -3 22 -7 26 -5 4
-8 11 -9 14 -2 17 -17 42 -25 42 -5 0 -3 -12 5 -27 7 -16 16 -44 19 -63 l6
-35 -12 38 c-7 21 -16 35 -20 31 -4 -4 -7 4 -7 19 0 28 -16 45 -23 25 -2 -7
-12 2 -21 20 -17 32 -17 33 1 24 15 -8 12 3 -14 59 -18 38 -34 79 -36 91 -1
13 -12 34 -23 47 -21 23 -22 23 -58 6 -20 -10 -36 -24 -36 -31 0 -8 -7 -17
-15 -20 -8 -4 -12 -10 -9 -15 5 -8 -41 -99 -50 -99 -6 0 14 81 25 102 17 32 2
33 -17 1 -10 -15 -37 -50 -60 -78 -84 -101 -138 -215 -102 -215 14 0 29 -23
42 -62 3 -10 10 -18 16 -18 8 0 9 15 5 43 -8 49 1 61 55 72 48 10 71 47 94
148 6 24 26 39 26 19 0 -13 28 -134 49 -216 30 -114 31 -113 -44 -71 -36 20
-70 33 -75 30 -5 -3 -22 -31 -37 -61 -26 -53 -43 -69 -43 -40 0 27 -18 27 -47
0 -15 -14 -40 -28 -55 -31 -15 -3 -28 -9 -28 -13 0 -10 38 -189 46 -217 6 -23
24 -32 24 -13 0 23 53 59 96 66 53 8 74 1 74 -25 0 -11 4 -21 10 -23 12 -4 15
-179 3 -204 -14 -28 -16 -91 -4 -99 16 -9 13 -52 -6 -81 -13 -20 -22 -24 -41
-19 -19 5 -23 3 -19 -9 8 -19 -40 -69 -58 -62 -8 3 -16 22 -18 43 -3 33 -4 32
-5 -12 -2 -40 -6 -51 -19 -52 -10 -1 -37 -5 -60 -9 -43 -7 -43 -7 -43 25 0 17
-1 34 -1 39 -1 4 8 11 20 17 11 5 21 15 21 22 0 7 9 13 19 13 28 0 34 15 33
80 -1 59 -29 151 -31 101 -1 -20 -4 -22 -13 -13 -7 7 -20 12 -30 12 -13 0 -18
8 -18 25 0 14 -4 25 -9 25 -11 0 -33 59 -25 71 3 5 16 9 29 9 13 0 26 6 28 13
4 10 6 10 6 0 2 -29 21 -10 21 20 -1 48 -36 227 -47 238 -6 6 -16 2 -28 -11
-22 -25 -51 -26 -59 -3 -6 15 -8 15 -17 3 -6 -11 -8 -3 -5 25 2 22 -3 56 -11
75 -8 19 -17 53 -20 75 -3 22 -12 58 -20 80 -9 22 -18 58 -20 80 -3 22 -9 44
-14 49 -16 17 -10 33 13 31 15 -1 27 -14 39 -41 10 -21 18 -34 18 -29 2 12 24
-32 51 -100 l20 -50 -6 40 c-4 22 -12 51 -19 65 -7 14 -18 39 -25 55 -7 17
-16 38 -21 47 -13 25 -11 32 5 19 11 -9 16 -6 25 16 6 16 30 41 51 56 22 16
40 32 40 37 0 5 -18 23 -40 41 -23 19 -44 47 -51 68 -6 20 -17 43 -23 51 -9
13 -9 13 6 2 15 -12 20 -8 43 38 15 29 36 55 49 60 31 11 111 -12 165 -48 38
-26 101 -96 101 -113 0 -4 14 -2 30 4 17 6 30 15 30 19 0 4 -8 4 -18 1 -15 -6
-15 -5 -3 10 12 15 11 17 -10 18 -13 0 -19 3 -12 6 16 6 -5 43 -24 43 -7 0
-13 4 -13 9 0 5 -18 17 -40 27 -36 16 -62 44 -40 44 6 0 10 -5 10 -11 0 -6 6
-9 12 -6 30 9 12 42 -39 71 -53 30 -71 53 -33 41 11 -4 20 -2 20 4 0 6 -7 11
-15 11 -8 0 -15 5 -15 10 0 6 -12 10 -27 10 -27 -1 -27 -1 -9 -15 26 -19 13
-19 -29 1 -27 12 -67 15 -231 12 -110 -2 -208 -7 -219 -12 -14 -6 -16 -5 -6 2
9 7 -112 10 -368 11 l-381 1 0 -1280z m480 1260 c0 -5 -5 -10 -11 -10 -5 0 -7
5 -4 10 3 6 8 10 11 10 2 0 4 -4 4 -10z m330 0 c0 -5 -2 -10 -4 -10 -3 0 -8 5
-11 10 -3 6 -1 10 4 10 6 0 11 -4 11 -10z m24 -25 c-4 -8 -10 -12 -15 -9 -11
6 -2 24 11 24 5 0 7 -7 4 -15z m107 -62 l24 -26 -32 23 c-34 25 -39 30 -25 30
5 0 19 -12 33 -27z m-527 -25 c-3 -5 -10 -6 -15 -2 -6 3 -8 -4 -6 -18 2 -12 2
-17 0 -10 -3 6 -9 12 -14 12 -6 0 -8 -4 -4 -9 3 -5 1 -12 -5 -16 -5 -3 -10
-18 -10 -33 l-1 -27 -15 25 c-14 23 -15 23 -11 3 3 -12 -1 -24 -8 -26 -20 -8
-5 42 17 54 11 6 17 13 14 17 -4 3 6 18 21 34 19 20 29 24 34 16 4 -7 5 -16 3
-20z m397 -40 c15 -6 31 -19 37 -29 9 -14 8 -16 -9 -12 -10 3 -19 9 -19 14 0
5 -5 9 -11 9 -5 0 -24 14 -42 32 -24 23 -26 27 -7 14 14 -9 37 -22 51 -28z
m207 -8 c17 -27 10 -25 -19 6 -13 14 -17 23 -9 19 9 -3 21 -14 28 -25z m37
-29 c-3 -6 -11 -11 -16 -11 -5 0 -4 6 3 14 14 16 24 13 13 -3z m-575 -75 c0
-24 -16 -43 -26 -33 -8 7 7 57 17 57 5 0 9 -11 9 -24z m-236 -35 c-6 -37 -8
-39 -19 -24 -8 10 -10 20 -5 23 4 3 11 15 15 28 11 36 16 20 9 -27z m1866 -11
c0 -5 -2 -10 -4 -10 -3 0 -8 5 -11 10 -3 6 -1 10 4 10 6 0 11 -4 11 -10z
m-1671 -27 c0 -25 -1 -25 -8 -8 -5 11 -7 23 -4 28 8 14 13 7 12 -20z m1556 7
c3 -5 1 -10 -4 -10 -6 0 -11 5 -11 10 0 6 2 10 4 10 3 0 8 -4 11 -10z m169
-15 c10 -14 24 -25 31 -25 19 0 45 -44 35 -60 -6 -10 -14 -9 -40 4 -18 9 -39
16 -45 16 -7 0 -18 7 -25 15 -7 9 -20 13 -30 10 -10 -3 -24 4 -36 17 -17 20
-18 21 -1 15 10 -4 26 -1 36 5 15 9 24 8 45 -5 14 -10 26 -13 26 -7 0 6 -7 13
-15 16 -8 4 -15 10 -15 15 0 16 15 9 34 -16z m-1598 -21 c-3 -9 -6 -23 -7 -32
0 -13 -2 -13 -8 3 -9 23 -4 45 11 45 6 0 7 -7 4 -16z m-375 -90 c-19 -88 -36
-109 -81 -99 -23 5 -35 16 -45 37 -16 41 -10 62 32 98 40 36 66 38 81 8 10
-21 11 -19 11 17 1 26 4 35 10 27 5 -8 1 -45 -8 -88z m1373 74 c-3 -4 -12 -8
-20 -8 -8 0 -13 4 -10 8 3 5 12 9 20 9 8 0 13 -4 10 -9z m-30 -34 c5 -14 4
-15 -9 -4 -17 14 -19 20 -6 20 5 0 12 -7 15 -16z m41 -4 c3 -5 1 -10 -4 -10
-6 0 -11 5 -11 10 0 6 2 10 4 10 3 0 8 -4 11 -10z m-1334 -31 c-5 -13 -10 -19
-10 -12 -1 15 10 45 15 40 3 -2 0 -15 -5 -28z m2019 21 c0 -5 -4 -10 -10 -10
-5 0 -10 5 -10 10 0 6 5 10 10 10 6 0 10 -4 10 -10z m-2040 -19 c0 -6 -4 -13
-10 -16 -5 -3 -10 1 -10 9 0 9 5 16 10 16 6 0 10 -4 10 -9z m1356 -58 c-5 -5
-36 50 -36 64 0 4 9 -7 21 -26 11 -18 18 -35 15 -38z m18 52 c3 -8 1 -15 -4
-15 -6 0 -10 7 -10 15 0 8 2 15 4 15 2 0 6 -7 10 -15z m-1372 -49 c4 -18 0
-26 -14 -29 -19 -5 -25 7 -8 18 5 3 7 12 3 20 -3 8 -1 15 5 15 5 0 12 -11 14
-24z m1398 -11 c0 -5 -5 -3 -10 5 -5 8 -10 20 -10 25 0 6 5 3 10 -5 5 -8 10
-19 10 -25z m-26 -21 c3 -8 2 -12 -4 -9 -6 3 -10 10 -10 16 0 14 7 11 14 -7z
m-1380 -23 c3 -5 -1 -22 -9 -37 l-15 -29 0 38 c0 35 12 48 24 28z m626 -12 c5
8 13 10 21 5 7 -4 24 -8 38 -8 19 -1 30 -13 52 -55 16 -30 27 -57 24 -59 -2
-3 5 -22 15 -43 11 -21 20 -48 20 -59 0 -12 4 -29 9 -38 5 -9 10 -42 13 -73
l4 -55 -35 -13 c-62 -22 -182 -35 -203 -22 -10 6 -31 11 -48 11 -21 0 -30 5
-31 18 -2 23 -6 55 -9 67 -1 6 -1 30 0 55 2 37 3 41 10 20 l7 -25 8 29 c9 32
-12 196 -25 196 -5 0 1 11 13 24 16 18 26 22 39 15 25 -13 38 -11 38 7 0 14 3
14 16 3 13 -10 17 -10 24 0z m780 -10 c0 -6 -4 -7 -10 -4 -5 3 -10 11 -10 16
0 6 5 7 10 4 6 -3 10 -11 10 -16z m320 1 c0 -5 -4 -10 -9 -10 -5 0 -8 -12 -6
-27 l4 -28 -14 30 c-10 22 -10 32 -2 37 17 11 27 10 27 -2z m351 -17 c16 -16
29 -33 29 -40 0 -6 18 -26 40 -43 22 -17 40 -38 40 -46 0 -8 5 -14 12 -14 6 0
9 -3 6 -6 -19 -18 -122 80 -114 108 3 15 0 18 -17 13 -17 -5 -19 -4 -7 4 12 8
9 12 -13 20 -15 6 -27 15 -27 21 0 18 21 11 51 -17z m-265 -26 c14 -56 11 -86
-8 -84 -9 1 -15 4 -13 7 2 3 0 31 -4 62 -6 43 -5 55 5 51 7 -2 16 -19 20 -36z
m-333 -57 c3 -11 1 -18 -4 -14 -5 3 -9 12 -9 20 0 20 7 17 13 -6z m34 -52 c-3
-7 -5 -2 -5 12 0 14 2 19 5 13 2 -7 2 -19 0 -25z m103 -22 c0 -3 -4 -8 -10
-11 -5 -3 -10 -1 -10 4 0 6 5 11 10 11 6 0 10 -2 10 -4z m652 -41 c4 -5 8 -16
8 -24 0 -17 -36 13 -52 42 -8 16 -7 17 14 5 13 -7 26 -17 30 -23z m-645 -7
c-3 -7 -5 -2 -5 12 0 14 2 19 5 13 2 -7 2 -19 0 -25z m143 -58 c11 -7 0 -60
-11 -60 -5 0 -8 26 -8 58 1 31 4 46 6 32 3 -14 9 -27 13 -30z m-1756 5 c5 -22
4 -26 -4 -15 -5 8 -10 24 -10 34 0 26 6 18 14 -19z m42 -60 c4 -11 9 -31 11
-45 2 -14 10 -35 18 -46 8 -12 11 -32 9 -45 -4 -17 -3 -20 4 -10 7 9 11 0 16
-33 4 -25 12 -48 17 -52 6 -3 8 -12 5 -20 -3 -8 -2 -14 2 -14 4 0 23 -42 42
-92 18 -51 45 -122 60 -158 44 -103 97 -296 86 -307 -5 -5 -18 40 -31 102 -4
17 -17 57 -30 90 -50 129 -88 220 -92 225 -11 10 8 -71 37 -163 31 -97 53
-195 41 -180 -4 4 -18 46 -30 93 -28 105 -129 443 -170 568 -21 62 -29 102
-24 120 7 28 6 30 29 -33z m1686 -8 c4 -19 -11 -47 -24 -47 -2 0 -2 18 0 40 4
42 17 46 24 7z m382 -163 c15 -48 39 -105 53 -127 19 -30 23 -45 16 -56 -10
-16 -93 -79 -105 -80 -4 -1 -20 28 -37 63 -16 35 -51 101 -76 147 -47 84 -50
109 -17 109 10 0 39 11 63 24 29 15 49 21 60 15 9 -5 29 -47 43 -95z m-1287 2
c1 -18 14 -58 29 -87 17 -35 28 -73 29 -109 2 -30 4 -57 5 -60 1 -3 2 -8 1
-13 -1 -4 6 -24 14 -43 19 -45 19 -111 2 -129 -13 -13 -36 -18 -67 -16 -28 2
-42 43 -52 150 -12 128 -19 311 -13 329 2 6 15 12 27 12 19 0 23 -6 25 -34z
m630 -248 c-3 -7 -5 -2 -5 12 0 14 2 19 5 13 2 -7 2 -19 0 -25z m-4 -275 c4
-6 2 -13 -4 -15 -9 -3 -9 -17 0 -56 11 -53 15 -331 4 -302 -3 8 -11 18 -16 22
-14 8 -17 76 -18 328 -1 283 2 316 15 165 6 -71 14 -135 19 -142z m4 150 c-2
-21 -4 -6 -4 32 0 39 2 55 4 38 2 -18 2 -50 0 -70z m-1110 25 c-3 -7 -5 -2 -5
12 0 14 2 19 5 13 2 -7 2 -19 0 -25z m32 -81 c1 -5 -3 -5 -9 -2 -5 3 -10 16
-9 28 0 21 1 21 9 2 5 -11 9 -24 9 -28z m1078 -49 c-2 -13 -4 -3 -4 22 0 25 2
35 4 23 2 -13 2 -33 0 -45z m-1070 10 c-3 -8 -6 -5 -6 6 -1 11 2 17 5 13 3 -3
4 -12 1 -19z m553 -54 c0 -20 -27 -29 -45 -14 -11 9 -11 15 -2 24 14 16 47 9
47 -10z m165 -124 c23 -163 43 -299 50 -340 4 -25 3 -29 -3 -15 -5 11 -12 43
-16 70 -4 28 -11 72 -17 98 -9 39 -14 46 -25 36 -9 -7 -14 -8 -14 -1 0 6 -11
9 -24 6 -22 -4 -23 -2 -16 30 14 64 39 78 41 24 1 -26 3 -22 10 17 4 28 4 67
-1 90 -10 41 -13 112 -6 104 3 -2 12 -56 21 -119z m-688 78 c-3 -8 -6 -5 -6 6
-1 11 2 17 5 13 3 -3 4 -12 1 -19z m22 -63 c0 -5 -4 -3 -9 5 -5 8 -9 22 -9 30
0 16 17 -16 18 -35z m1481 -1 c0 -8 -4 -12 -10 -9 -5 3 -10 10 -10 16 0 5 5 9
10 9 6 0 10 -7 10 -16z m-30 -44 c0 -5 -2 -10 -4 -10 -3 0 -8 5 -11 10 -3 6
-1 10 4 10 6 0 11 -4 11 -10z m-1550 -54 c0 -26 -6 -18 -14 19 -5 22 -4 26 4
15 5 -8 10 -24 10 -34z m1540 13 c0 -6 -4 -7 -10 -4 -5 3 -10 11 -10 16 0 6 5
7 10 4 6 -3 10 -11 10 -16z m-739 -32 c-8 -8 -11 -5 -11 9 0 27 14 41 18 19 2
-9 -1 -22 -7 -28z m-794 -29 c-3 -8 -6 -5 -6 6 -1 11 2 17 5 13 3 -3 4 -12 1
-19z m1391 -109 l-15 -31 -5 27 c-4 20 -2 25 10 20 12 -4 13 1 9 27 -5 29 -5
30 5 11 8 -17 7 -30 -4 -54z m102 56 c0 -8 -4 -15 -10 -15 -5 0 -7 7 -4 15 4
8 8 15 10 15 2 0 4 -7 4 -15z m-1473 -27 c-3 -8 -6 -5 -6 6 -1 11 2 17 5 13 3
-3 4 -12 1 -19z m1461 -38 c-15 -24 -19 -21 -11 8 3 12 9 19 14 16 5 -3 3 -14
-3 -24z m-119 -12 c10 -30 9 -31 -4 -14 -8 11 -15 26 -15 33 0 22 8 14 19 -19z
m-259 -24 c0 -8 -4 -12 -10 -9 -5 3 -10 13 -10 21 0 8 5 12 10 9 6 -3 10 -13
10 -21z m87 -6 c-3 -8 -6 -5 -6 6 -1 11 2 17 5 13 3 -3 4 -12 1 -19z m193 -40
c0 -7 -7 -21 -14 -31 -17 -22 -28 -2 -14 26 10 20 28 23 28 5z m95 2 c3 -5 2
-10 -4 -10 -5 0 -13 5 -16 10 -3 6 -2 10 4 10 5 0 13 -4 16 -10z m-658 -92
c-3 -7 -5 -2 -5 12 0 14 2 19 5 13 2 -7 2 -19 0 -25z m343 -39 c0 -5 -4 -9
-10 -9 -5 0 -10 7 -10 16 0 8 5 12 10 9 6 -3 10 -10 10 -16z m193 -6 c-7 -3
-13 -12 -13 -21 0 -12 -3 -13 -12 -4 -9 9 -8 15 8 26 10 8 21 12 24 9 3 -3 -1
-8 -7 -10z m-47 -39 c-3 -19 -36 -41 -36 -24 0 12 21 39 32 40 3 0 5 -7 4 -16z
m-166 -10 c0 -13 -42 -74 -51 -74 -5 0 -19 -10 -31 -22 -22 -22 -23 -22 -27
-3 -2 10 2 21 8 23 6 2 11 8 11 14 0 16 57 68 75 68 8 0 15 -3 15 -6z m290
-118 c0 -3 -4 -8 -10 -11 -5 -3 -10 -1 -10 4 0 6 5 11 10 11 6 0 10 -2 10 -4z
m20 -62 c0 -16 -16 -19 -25 -4 -8 13 4 32 16 25 5 -4 9 -13 9 -21z m-123 -56
c-3 -7 -5 -2 -5 12 0 14 2 19 5 13 2 -7 2 -19 0 -25z m133 -10 c0 -5 -4 -8
-10 -8 -5 0 -10 10 -10 23 0 18 2 19 10 7 5 -8 10 -18 10 -22z"/>
<path d="M2087 2176 c-4 -10 0 -12 14 -9 22 6 26 23 5 23 -8 0 -16 -6 -19 -14z"/>
<path d="M241 1634 c0 -11 3 -14 6 -6 3 7 2 16 -1 19 -3 4 -6 -2 -5 -13z"/>
<path d="M1656 643 c-6 -14 -5 -15 5 -6 7 7 10 15 7 18 -3 3 -9 -2 -12 -12z"/>
<path d="M1346 2545 c35 -11 86 -37 217 -112 12 -7 21 -18 19 -24 -1 -6 2 -8
7 -5 32 20 -27 104 -64 90 -23 -9 -70 16 -53 29 9 6 8 7 -5 3 -10 -3 -41 3
-70 14 -29 11 -61 20 -72 19 -11 -1 -2 -7 21 -14z m244 -96 c0 -4 -7 -6 -15
-3 -8 4 -15 10 -15 15 0 4 7 6 15 3 8 -4 15 -10 15 -15z"/>
<path d="M1415 2550 c3 -5 13 -10 21 -10 8 0 12 5 9 10 -3 6 -13 10 -21 10 -8
0 -12 -4 -9 -10z"/>
<path d="M1550 2544 c8 -8 23 -20 34 -26 19 -10 18 -8 -3 16 -26 27 -53 37
-31 10z"/>
<path d="M1602 2549 c10 -5 21 -17 26 -26 8 -14 11 -13 22 6 12 24 4 44 -9 22
-6 -9 -11 -10 -15 -2 -4 6 -15 11 -24 11 -16 -1 -16 -1 0 -11z"/>
<path d="M1345 2505 c11 -8 25 -19 32 -25 7 -5 17 -10 23 -10 6 0 23 -11 38
-25 15 -14 29 -20 32 -15 6 10 38 -19 55 -50 8 -13 7 -13 -8 -1 -10 8 -21 11
-24 7 -4 -4 -3 -10 2 -14 6 -4 19 -17 29 -30 18 -21 18 -22 2 -16 -15 6 -17 2
-14 -22 3 -28 38 -50 38 -24 0 7 -7 10 -14 7 -10 -4 -13 -1 -9 9 4 11 9 12 16
5 8 -8 15 1 24 27 7 20 13 40 13 44 0 12 -102 88 -112 82 -5 -3 -17 1 -26 9
-9 8 -32 20 -49 28 -18 8 -33 17 -33 21 0 5 -8 8 -17 8 -16 -1 -16 -2 2 -15z
m213 -170 c-3 -3 -9 2 -12 12 -6 14 -5 15 5 6 7 -7 10 -15 7 -18z"/>
<path d="M1490 2509 c0 -5 5 -7 10 -4 6 3 10 8 10 11 0 2 -4 4 -10 4 -5 0 -10
-5 -10 -11z"/>
<path d="M1436 2485 c10 -8 23 -15 28 -15 6 0 1 7 -10 15 -10 8 -23 15 -28 15
-6 0 -1 -7 10 -15z"/>
<path d="M1870 2470 c0 -5 7 -10 15 -10 8 0 15 5 15 10 0 6 -7 10 -15 10 -8 0
-15 -4 -15 -10z"/>
<path d="M1380 2440 c-13 -8 -13 -10 -1 -10 11 0 10 -4 -4 -13 -16 -13 -15
-14 15 -12 27 2 41 -6 72 -38 22 -21 42 -36 45 -33 4 3 -12 24 -35 46 -22 22
-37 40 -34 40 8 1 -29 30 -37 30 -3 0 -13 -5 -21 -10z m38 -9 c11 -6 10 -10
-4 -15 -9 -3 -19 -4 -22 -1 -3 3 1 5 9 5 11 0 11 2 -1 10 -8 5 -10 10 -5 10 6
0 16 -4 23 -9z"/>
<path d="M1986 2325 c-3 -8 -1 -15 4 -15 6 0 10 7 10 15 0 8 -2 15 -4 15 -2 0
-6 -7 -10 -15z"/>
<path d="M1191 2303 c0 -11 3 -13 6 -5 2 6 9 10 13 7 5 -3 11 -1 15 5 3 5 -3
10 -14 10 -14 0 -21 -6 -20 -17z"/>
<path d="M1565 2280 c-10 -11 -15 -23 -11 -27 3 -4 15 3 26 15 11 11 16 23 11
26 -4 3 -16 -3 -26 -14z"/>
<path d="M2060 2270 c0 -5 5 -10 10 -10 6 0 10 5 10 10 0 6 -4 10 -10 10 -5 0
-10 -4 -10 -10z"/>
<path d="M1965 2130 c-3 -5 -2 -10 4 -10 5 0 13 5 16 10 3 6 2 10 -4 10 -5 0
-13 -4 -16 -10z"/>
<path d="M2050 2110 c0 -5 5 -10 11 -10 5 0 7 5 4 10 -3 6 -8 10 -11 10 -2 0
-4 -4 -4 -10z"/>
<path d="M1100 1940 c0 -5 4 -10 9 -10 4 0 14 -21 21 -47 7 -27 16 -52 20 -58
5 -5 10 -19 13 -30 3 -11 3 0 0 25 -6 53 -37 130 -52 130 -6 0 -11 -4 -11 -10z"/>
<path d="M1835 1890 c-3 -5 -1 -10 4 -10 6 0 11 5 11 10 0 6 -2 10 -4 10 -3 0
-8 -4 -11 -10z"/>
<path d="M1271 1264 c0 -11 3 -14 6 -6 3 7 2 16 -1 19 -3 4 -6 -2 -5 -13z"/>
<path d="M1281 1189 c-2 -33 12 -109 20 -109 5 0 9 10 8 23 -1 28 -27 107 -28
86z"/>
<path d="M2184 575 c-4 -8 -12 -15 -19 -15 -21 0 -49 -84 -42 -127 6 -39 57
-97 65 -74 2 6 16 11 31 11 16 0 39 9 52 21 l23 20 -34 -6 c-33 -6 -34 -6 -16
14 26 29 32 93 11 114 -39 40 -95 3 -95 -63 0 -39 11 -54 45 -63 16 -4 14 -5
-7 -6 -33 -1 -58 31 -58 76 0 25 9 42 35 67 19 19 35 37 35 40 0 13 -21 5 -26
-9z"/>
<path d="M2238 583 c7 -3 16 -2 19 1 4 3 -2 6 -13 5 -11 0 -14 -3 -6 -6z"/>
<path d="M2451 379 c-50 -30 -64 -61 -59 -129 5 -63 23 -95 66 -111 19 -8 31
-3 63 22 21 17 39 38 38 47 0 11 -2 12 -6 5 -2 -7 -13 -13 -24 -13 -18 0 -19
2 -4 30 21 40 19 72 -5 98 -22 23 -54 29 -65 12 -3 -5 -12 -10 -18 -10 -20 1
37 40 57 40 11 0 30 -10 43 -22 27 -25 32 -6 6 21 -27 27 -58 31 -92 10z m-25
-108 c0 -28 -3 -48 -8 -45 -14 9 -9 94 6 94 1 0 1 -22 2 -49z"/>
<path d="M2214 249 c-44 -12 -69 -70 -58 -136 13 -84 21 -100 48 -107 53 -13
126 61 126 129 0 74 -57 130 -116 114z m71 -45 c33 -35 35 -102 5 -129 -21
-19 -21 -19 -14 23 9 56 -2 90 -31 104 -13 6 -22 15 -19 19 10 17 35 9 59 -17z
m-101 -89 c5 -22 4 -26 -4 -15 -5 8 -10 24 -10 34 0 26 6 18 14 -19z"/>
<path d="M151 74 c0 -11 3 -14 6 -6 3 7 2 16 -1 19 -3 4 -6 -2 -5 -13z"/>
<path d="M138 25 c-3 -14 -1 -25 3 -25 5 0 9 11 9 25 0 32 -6 32 -12 0z"/>
</g>
</svg>
